<svg width="121" height="60" viewBox="0 0 121 60" fill="none" xmlns="http://www.w3.org/2000/svg">
<rect x="10.5" y="10" width="100" height="40" rx="20" fill="white"/>
<path d="M41.66 24.878V35H39.77V30.576H35.017V35H33.127V24.878H35.017V29.232H39.77V24.878H41.66ZM45.8041 35H43.9141V24.878H45.8041V35ZM51.1294 29.694C51.484 29.694 51.792 29.6497 52.0534 29.561C52.3194 29.4723 52.5364 29.351 52.7044 29.197C52.877 29.0383 53.0054 28.8517 53.0894 28.637C53.1734 28.4223 53.2154 28.1867 53.2154 27.93C53.2154 27.4167 53.045 27.0223 52.7044 26.747C52.3684 26.4717 51.8527 26.334 51.1574 26.334H49.9534V29.694H51.1294ZM55.9734 35H54.2724C53.9504 35 53.717 34.874 53.5724 34.622L51.4444 31.381C51.365 31.2597 51.2764 31.1733 51.1784 31.122C51.085 31.0707 50.945 31.045 50.7584 31.045H49.9534V35H48.0704V24.878H51.1574C51.8434 24.878 52.4314 24.9503 52.9214 25.095C53.416 25.235 53.8197 25.4333 54.1324 25.69C54.4497 25.9467 54.683 26.2547 54.8324 26.614C54.9817 26.9687 55.0564 27.3607 55.0564 27.79C55.0564 28.1307 55.005 28.4527 54.9024 28.756C54.8044 29.0593 54.6597 29.3347 54.4684 29.582C54.2817 29.8293 54.0484 30.0463 53.7684 30.233C53.493 30.4197 53.178 30.5667 52.8234 30.674C52.9447 30.744 53.0567 30.828 53.1594 30.926C53.262 31.0193 53.3554 31.1313 53.4394 31.262L55.9734 35ZM58.9565 26.376V29.183H62.4985V30.632H58.9565V33.495H63.4505V35H57.0665V24.878H63.4505V26.376H58.9565ZM79.4995 24.878V35H77.8405V28.462C77.8405 28.2007 77.8545 27.9183 77.8825 27.615L74.8235 33.362C74.6788 33.6373 74.4572 33.775 74.1585 33.775H73.8925C73.5938 33.775 73.3722 33.6373 73.2275 33.362L70.1335 27.594C70.1475 27.748 70.1592 27.8997 70.1685 28.049C70.1778 28.1983 70.1825 28.336 70.1825 28.462V35H68.5235V24.878H69.9445C70.0285 24.878 70.1008 24.8803 70.1615 24.885C70.2222 24.8897 70.2758 24.9013 70.3225 24.92C70.3738 24.9387 70.4182 24.969 70.4555 25.011C70.4975 25.053 70.5372 25.109 70.5745 25.179L73.6055 30.8C73.6848 30.9493 73.7572 31.1033 73.8225 31.262C73.8925 31.4207 73.9602 31.584 74.0255 31.752C74.0908 31.5793 74.1585 31.4137 74.2285 31.255C74.2985 31.0917 74.3732 30.9353 74.4525 30.786L77.4415 25.179C77.4788 25.109 77.5185 25.053 77.5605 25.011C77.6025 24.969 77.6468 24.9387 77.6935 24.92C77.7448 24.9013 77.8008 24.8897 77.8615 24.885C77.9222 24.8803 77.9945 24.878 78.0785 24.878H79.4995ZM83.6479 26.376V29.183H87.1899V30.632H83.6479V33.495H88.1419V35H81.7579V24.878H88.1419V26.376H83.6479Z" fill="#1A1A1A"/>
</svg>
